



<svg xmlns="http://www.w3.org/2000/svg" version="1.0" width="40px" height="512.000000pt" viewBox="0 0 512.000000 512.000000" preserveAspectRatio="xMidYMid meet">

    <g transform="translate(0.000000,512.000000) scale(0.100000,-0.100000)" fill="#000000" stroke="none">
    <path fill="#0e59b0" fill-opacity="1" d="M2290 5114 c-597 -73 -1123 -327 -1540 -744 -380 -379 -625 -851 -722 -1387 -21 -115 -23 -158 -23 -423 0 -329 11 -424 80 -676 236 -861 938 -1563 1799 -1799 251 -68 347 -80 671 -80 322 0 399 8 641 70 892 228 1621 957 1849 1849 62 242 70 319 70 641 0 324 -12 420 -80 671 -236 861 -938 1563 -1799 1798 -237 66 -340 79 -641 81 -148 2 -286 1 -305 -1z m1882 -1351 c93 -92 168 -172 168 -178 0 -5 -515 -525 -1145 -1155 l-1145 -1145 -637 637 -638 638 175 175 175 175 460 -460 460 -460 970 970 c533 534 974 970 980 970 5 0 85 -75 177 -167z"/>
    </g>
    </svg>
